<?xml version="1.0" encoding="UTF-8"?>
<svg id="Layer_1" data-name="Layer 1" xmlns="http://www.w3.org/2000/svg" version="1.1" viewBox="0 0 1513.3 613.7">
  <defs>
    <style>
      .cls-1 {
        fill: #036;
        stroke-width: 0px;
      }
    </style>
  </defs>
  <path class="cls-1" d="M99.4,364.6l97.8-227.5h41.9l97.2,227.5h-44.5l-58.5-137.1c-1.3-3.5-2.9-7.7-4.7-12.7-1.8-5-3.8-10.2-5.8-15.8-2.1-5.5-4-10.8-5.8-15.9-1.8-5.1-3.3-9.4-4.4-12.8l9.4-.3c-1.3,4.5-2.9,9.4-4.7,14.5-1.8,5.1-3.7,10.2-5.7,15.3-1.9,5.1-3.9,10.1-5.8,14.9-1.9,4.9-3.7,9.5-5.2,13.8l-58.5,136.2h-42.6ZM143.3,313.9l15.3-36.7h116l12,36.7h-143.3Z"/>
  <path class="cls-1" d="M464.4,367.9c-18.2,0-34.3-3.9-48.4-11.7-14.1-7.8-25.2-18.4-33.5-31.8-8.2-13.4-12.3-28.6-12.3-45.5s4.1-32.1,12.3-45.5c8.2-13.4,19.3-24,33.3-31.8,14-7.8,29.9-11.7,47.9-11.7s32.9,2.9,47.3,8.6c14.4,5.7,25.8,13.7,34.3,23.9l-22.1,28.6c-4.3-4.8-9.6-9.1-15.8-13-6.2-3.9-12.8-7-19.8-9.3-7-2.3-14-3.4-21-3.4-11,0-20.9,2.3-29.4,7-8.6,4.7-15.2,11-20,19.2-4.8,8.1-7.1,17.3-7.1,27.5s2.5,19.3,7.5,27.3c5,8,11.7,14.4,20.3,19.2,8.6,4.8,18.1,7.1,28.8,7.1s15.4-1,22.1-3.1c6.7-2.1,13-4.8,18.8-8.1,5.8-3.4,11-7.2,15.6-11.5l21.8,28.3c-9.3,8.4-21,15.5-34.9,21.3-14,5.7-29.2,8.6-45.7,8.6Z"/>
  <path class="cls-1" d="M858.3,364.6v-171.2h39l1,40.3-10.1,2.9c3-8,8-15.5,14.9-22.6,6.9-7,15.3-12.8,25-17.4,9.7-4.5,20.1-6.8,31.2-6.8s27.2,2.9,37.4,8.6c10.2,5.7,17.8,14,22.7,24.7,5,10.7,7.5,23.5,7.5,38.2v103.3h-40v-98.5c0-8.9-1.6-16.4-4.9-22.4-3.2-6.1-8-10.7-14.1-14-6.2-3.2-13.4-4.8-21.6-4.5-6.9,0-13.3,1.2-19.2,3.6-5.8,2.4-10.9,5.6-15.3,9.6-4.3,4-7.6,8.4-9.9,13.3-2.3,4.9-3.4,9.9-3.4,15.1v97.8h-40.3Z"/>
  <path class="cls-1" d="M1120.6,155.7c-8,0-14.2-2-18.7-6-4.4-4-6.7-9.7-6.7-17.1s2.3-12.6,6.8-16.9c4.5-4.3,10.7-6.5,18.5-6.5s14.3,2,18.8,6c4.5,4,6.8,9.8,6.8,17.4s-2.3,12.2-7,16.6c-4.7,4.3-10.9,6.5-18.7,6.5ZM1101.1,364.6v-171.2h40v171.2h-40Z"/>
  <path class="cls-1" d="M1288.8,367.9c-16.7,0-31.5-3.8-44.4-11.5-12.9-7.7-23.1-18.2-30.5-31.7-7.5-13.4-11.2-28.8-11.2-46.1s3.8-32.4,11.4-45.8c7.6-13.4,18-23.9,31.4-31.5,13.3-7.6,28.5-11.4,45.7-11.4s19.5,1.3,28.1,3.9c8.6,2.6,16,6.2,22.4,10.9,6.4,4.7,11.5,9.7,15.4,15.3s6.3,11.3,7.1,17.4l-9.4-1v-42.9h40v171.2h-40.3v-43.5l8.8.3c-1.1,5.4-3.7,10.9-8,16.4-4.2,5.5-9.7,10.5-16.6,14.9-6.8,4.4-14.5,8.1-22.9,10.9-8.4,2.8-17.4,4.2-27,4.2ZM1299.5,332.4c11,0,20.8-2.3,29.4-6.8,8.6-4.5,15.2-10.9,20-19,4.8-8.1,7.1-17.5,7.1-28.1s-2.4-19.3-7.1-27.3c-4.8-8-11.4-14.3-20-19-8.6-4.7-18.4-7-29.4-7s-21.1,2.3-29.6,7c-8.4,4.7-15,11-19.7,19-4.7,8-7,17.1-7,27.3s2.3,20,7,28.1c4.7,8.1,11.2,14.5,19.7,19,8.4,4.5,18.3,6.8,29.6,6.8Z"/>
  <g>
    <path class="cls-1" d="M598.3,268c.3-2.2.5-4.4.9-6.5,2.5-15.3,8.9-28.9,18.9-40.8,7.3-8.7,16.1-15.8,26-21.3,10.9-6.1,22.6-10,34.9-12,9.5-1.5,19.1-1.9,28.7-1.4,15.8.8,31,4.4,45.1,11.7,16.1,8.3,29,20,38.1,35.7,1.5,2.6,2.7,5.3,4.1,8,.1.3.2.5.3.8-1.7,0-3.4,0-5.1,0-9.9.6-17.6,5.1-23.1,13.3-3.4,5.1-5.5,10.7-6.7,16.6-.9,4.5-1.6,9.1-2.3,13.6-.7,4.4-1.5,8.8-3.3,12.9-1.5,3.5-3.5,6.7-6.5,9.2-6,5-13.6,4.8-19.5-.6-3.7-3.4-6.1-7.6-7.7-12.3-3.3-9.6-3.7-19.3-1.2-29.1,1.2-4.8,2.7-9.5,4.2-14.2,1.5-5,2.6-10,2.2-15.2-.6-7.1-3.3-13.1-9.4-17.2-3.8-2.6-8.1-3.6-12.6-3.1-12.1,1.1-20.6,7.4-25.9,18.2-2.7,5.5-4.1,11.4-4.6,17.5-.9,10.5.7,20.7,3.2,30.8,1.3,5.2,2.7,10.4,3.8,15.6,1.1,4.7,1.5,9.5.9,14.4-.7,6.2-3,11.5-7.8,15.6-4.3,3.5-9.1,4.8-14.5,2.8-4.4-1.7-7.4-5-9.6-9.1-2.3-4.5-2.9-9.3-2.7-14.2.2-5.2,1.4-10.2,2.4-15.3,1-5,1.9-10.1,1.7-15.2-.3-6.6-2.5-12.5-7.5-16.9-4-3.5-8.7-5.6-13.9-6.2-13-1.6-23.2,3.3-31,13.5-.2.2-.3.4-.5.6,0,0-.1,0-.2,0Z"/>
    <path class="cls-1" d="M700.1,368.7c-13.7,0-27.1-1.8-40.1-6.4-15.2-5.4-28.5-13.7-39.4-25.6-10.3-11.3-17.3-24.3-20.6-39.3,0-.4-.1-.8,0-1.2,1.5-6.2,3.4-12.2,6.6-17.7,2.2-3.9,5-7.3,9-9.6,4.7-2.7,9.7-3.4,14.9-1.9,5.2,1.5,8.4,6.1,8.5,11.4,0,4.6-.8,9-1.7,13.4-1,4.6-2.1,9.1-2.4,13.8-.7,11.4,2,21.6,9.9,30.2,4.3,4.7,9.7,7.5,16.1,8.3,8.2,1.1,15.4-1.3,21.5-6.7,6.8-6,10.7-13.6,11.9-22.5.8-6.5.3-12.9-1.1-19.2-1.4-6.3-3-12.6-4.5-18.9-1.4-6.2-2.5-12.4-2.4-18.8.2-6.3,1-12.4,3.6-18.2,1.4-3.1,3.3-6,6-8.1,2.5-1.9,5.3-3,8.4-3.2,5.2-.3,8.5,2.3,9.5,7.3.7,3.3.3,6.6-.8,9.8-1.2,3.6-2.6,7.2-3.8,10.8-2.7,7.9-3.7,16.1-3.3,24.5.5,8.2,2.3,16,5.9,23.4,2.8,5.7,6.4,10.7,11.5,14.5,10.1,7.5,23.4,6.9,33-1.4,6-5.2,9.7-11.8,11.8-19.3,1.4-5.1,2.3-10.4,3.1-15.7.8-5.1,1.6-10.2,3.6-15,1.6-3.9,3.8-7.4,7.2-9.9,5.1-3.8,12.1-3.9,17.5-1,.3.1.5.5.5.8.6,3.7,1.2,7.4,1.7,11.1.5,4.8.5,9.7.2,14.5-.9,16.8-6.1,32.1-16.1,45.7-10.9,15-25.3,25.4-42.4,32.2-8.6,3.4-17.5,5.5-26.7,6.7-5.6.7-11.2,1-16.9,1Z"/>
  </g>
  <path class="cls-1" d="M127.7,507.8c-3.8,0-7.3-.6-10.5-1.9-3.2-1.3-6-3.1-8.4-5.4-2.4-2.3-4.2-5-5.5-8.1-1.3-3.1-2-6.5-2-10.2s.7-7.1,2-10.2c1.3-3.1,3.2-5.8,5.5-8.1,2.4-2.3,5.2-4.1,8.4-5.4,3.2-1.3,6.7-1.9,10.6-1.9s7.3.6,10.5,1.9c3.2,1.3,6,3.1,8.4,5.4,2.4,2.3,4.2,5,5.5,8.1s2,6.5,2,10.2-.7,7.1-2,10.2-3.2,5.8-5.5,8.1c-2.4,2.3-5.2,4.1-8.4,5.4-3.2,1.3-6.7,1.9-10.5,1.9ZM127.7,503.1c3,0,5.8-.5,8.4-1.5,2.6-1,4.8-2.5,6.7-4.4,1.9-1.9,3.4-4.1,4.4-6.6,1.1-2.5,1.6-5.3,1.6-8.3s-.5-5.8-1.6-8.3c-1.1-2.5-2.5-4.7-4.4-6.6-1.9-1.9-4.1-3.4-6.7-4.4-2.6-1-5.4-1.5-8.4-1.5s-5.8.5-8.4,1.5c-2.6,1-4.8,2.5-6.7,4.4-1.9,1.9-3.4,4.1-4.5,6.6-1.1,2.5-1.6,5.3-1.6,8.3s.5,5.7,1.6,8.3c1.1,2.5,2.6,4.8,4.5,6.7,1.9,1.9,4.1,3.4,6.7,4.4,2.6,1,5.4,1.5,8.4,1.5Z"/>
  <path class="cls-1" d="M180.4,507.4v-50.4h4.4l23,39.3h-2.3l22.8-39.3h4.4v50.4h-5.1v-42.4h1.2l-21,36h-2.5l-21.2-36h1.4v42.4h-5.1Z"/>
  <path class="cls-1" d="M255.5,507.4l23-50.4h5.3l23,50.4h-5.6l-21.2-47.3h2.2l-21.2,47.3h-5.5ZM264.6,493.9l1.6-4.3h29.3l1.6,4.3h-32.5Z"/>
  <path class="cls-1" d="M368.2,507.4h-5.3v-50.4h5.3v50.4ZM400.3,484.1h-32.6v-4.7h32.6v4.7ZM399.8,457h5.3v50.4h-5.3v-50.4Z"/>
  <path class="cls-1" d="M447.9,507.4v-18.7l1.2,3.3-21.4-35h5.7l18.8,30.7h-3l18.8-30.7h5.3l-21.4,35,1.2-3.3v18.7h-5.3Z"/>
  <path class="cls-1" d="M508.9,507.4l-22.3-50.4h5.8l20.9,47.4h-3.2l21-47.4h5.4l-22.3,50.4h-5.3Z"/>
  <path class="cls-1" d="M558.2,507.4v-50.4h5.3v50.4h-5.3Z"/>
  <path class="cls-1" d="M594.3,507.4v-50.4h4.4l34.8,43.8h-2.3v-43.8h5.3v50.4h-4.4l-34.7-43.8h2.3v43.8h-5.3Z"/>
  <path class="cls-1" d="M681,507.4l-22.3-50.4h5.8l20.9,47.4h-3.2l21-47.4h5.4l-22.3,50.4h-5.3Z"/>
  <path class="cls-1" d="M751.8,507.8c-3.8,0-7.3-.6-10.5-1.9-3.2-1.3-6-3.1-8.4-5.4-2.4-2.3-4.2-5-5.5-8.1-1.3-3.1-2-6.5-2-10.2s.7-7.1,2-10.2c1.3-3.1,3.2-5.8,5.5-8.1,2.4-2.3,5.2-4.1,8.4-5.4,3.2-1.3,6.7-1.9,10.6-1.9s7.3.6,10.5,1.9c3.2,1.3,6,3.1,8.4,5.4,2.4,2.3,4.2,5,5.5,8.1s2,6.5,2,10.2-.7,7.1-2,10.2-3.2,5.8-5.5,8.1-5.2,4.1-8.4,5.4c-3.2,1.3-6.7,1.9-10.5,1.9ZM751.8,503.1c3,0,5.8-.5,8.4-1.5,2.6-1,4.8-2.5,6.7-4.4s3.4-4.1,4.4-6.6c1.1-2.5,1.6-5.3,1.6-8.3s-.5-5.8-1.6-8.3c-1.1-2.5-2.5-4.7-4.4-6.6-1.9-1.9-4.1-3.4-6.7-4.4-2.6-1-5.4-1.5-8.4-1.5s-5.8.5-8.4,1.5c-2.6,1-4.8,2.5-6.7,4.4s-3.4,4.1-4.5,6.6c-1.1,2.5-1.6,5.3-1.6,8.3s.5,5.7,1.6,8.3c1.1,2.5,2.6,4.8,4.5,6.7,1.9,1.9,4.1,3.4,6.7,4.4,2.6,1,5.4,1.5,8.4,1.5Z"/>
  <path class="cls-1" d="M804.6,507.4v-50.4h5.3v50.4h-5.3Z"/>
  <path class="cls-1" d="M840.7,507.4v-50.4h4.4l34.8,43.8h-2.3v-43.8h5.3v50.4h-4.4l-34.7-43.8h2.3v43.8h-5.3Z"/>
  <path class="cls-1" d="M923.5,507.4v-45.8h-17.7v-4.6h40.8v4.6h-17.7v45.8h-5.3Z"/>
  <path class="cls-1" d="M969.4,507.4v-50.4h5.3v50.4h-5.3Z"/>
  <path class="cls-1" d="M1044.1,502.8h30.3v4.6h-35.6v-50.4h34.6v4.6h-29.2v41.2ZM1043.6,479.5h26.6v4.5h-26.6v-4.5Z"/>
  <path class="cls-1" d="M1101.4,507.4v-50.4h20.5c5.4,0,10.1,1.1,14.1,3.2,4.1,2.1,7.2,5.1,9.5,8.9,2.3,3.8,3.4,8.2,3.4,13.1s-1.1,9.3-3.4,13.1c-2.3,3.8-5.4,6.8-9.5,8.9-4.1,2.1-8.8,3.2-14.1,3.2h-20.5ZM1106.7,502.8h14.9c4.5,0,8.3-.9,11.6-2.6,3.3-1.8,5.8-4.2,7.7-7.3,1.8-3.1,2.7-6.7,2.7-10.7s-.9-7.7-2.7-10.7c-1.8-3.1-4.4-5.5-7.7-7.2-3.3-1.8-7.2-2.6-11.6-2.6h-14.9v41.2Z"/>
  <path class="cls-1" d="M1180.6,502.8h30.3v4.6h-35.6v-50.4h34.6v4.6h-29.2v41.2ZM1180,479.5h26.6v4.5h-26.6v-4.5Z"/>
  <path class="cls-1" d="M1237.8,507.4v-50.4h5.3v45.8h28.2v4.6h-33.6Z"/>
  <path class="cls-1" d="M1294.6,507.4v-50.4h5.3v45.8h28.2v4.6h-33.6Z"/>
  <path class="cls-1" d="M1343.4,507.4l23-50.4h5.3l23,50.4h-5.6l-21.2-47.3h2.2l-21.2,47.3h-5.5ZM1352.4,493.9l1.6-4.3h29.3l1.6,4.3h-32.5ZM1362.7,451.2c-.9,0-1.6-.3-2.2-.9-.6-.6-.9-1.3-.9-2.2s.3-1.7.9-2.2c.6-.6,1.3-.9,2.2-.9s1.5.3,2.2.9.9,1.3.9,2.2-.3,1.7-.9,2.2c-.6.6-1.3.9-2.2.9ZM1375.5,451.2c-.8,0-1.5-.3-2.2-.9-.6-.6-.9-1.3-.9-2.2s.3-1.7.9-2.2,1.3-.9,2.2-.9,1.6.3,2.2.9c.6.6.9,1.3.9,2.2s-.3,1.7-.9,2.2c-.6.6-1.3.9-2.2.9Z"/>
</svg>