<?xml version="1.0" encoding="UTF-8"?> <svg xmlns="http://www.w3.org/2000/svg" width="963" height="200" viewBox="0 0 963 200" fill="none"><path d="M93.3614 199.976C84.1392 199.971 75.0768 197.568 67.0638 193.003L27.0198 170.167C19.4035 165.801 12.9802 159.626 8.31768 152.187L8.26787 152.113C7.96903 151.615 7.6951 151.216 7.47098 150.843C7.22195 150.369 6.94801 149.946 6.74878 149.523L6.69898 149.423C2.49174 141.713 0.266777 133.079 0.224205 124.296L7.95774e-05 78.2006C-0.0160106 68.8779 2.40819 59.7134 7.03171 51.618C11.6552 43.5225 18.317 36.7782 26.3549 32.0554L66.1748 8.79593C74.2338 4.11589 83.3772 1.62614 92.6965 1.57407H92.9455C102.183 1.58197 111.261 3.98439 119.293 8.5469L152.987 27.772C157.372 30.2645 161.222 33.5976 164.317 37.5803C167.412 41.563 169.691 46.1171 171.023 50.9818C172.356 55.8465 172.715 60.9263 172.082 65.9302C171.448 70.9342 169.834 75.7639 167.331 80.143C163.971 85.992 159.148 90.8666 153.335 94.2879L85.7734 133.734C84.6996 134.377 83.754 135.213 82.9843 136.2C82.2198 137.197 81.6689 138.342 81.3656 139.562C81.0596 140.774 81.0003 142.036 81.1913 143.272C81.3759 144.512 81.7987 145.704 82.4364 146.783C83.067 147.84 83.8996 148.762 84.8866 149.497C85.8737 150.232 86.9958 150.766 88.189 151.067C90.6061 151.655 93.1567 151.289 95.3113 150.046L135.604 126.438C138.415 124.764 141.53 123.664 144.769 123.2C145.924 123.042 147.089 122.959 148.255 122.951C150.356 122.943 152.449 123.211 154.481 123.748C159.24 124.976 163.525 127.597 166.786 131.275C170.047 134.953 172.136 139.52 172.784 144.393C173.652 150.935 171.888 157.554 167.879 162.796C165.895 165.385 163.414 167.552 160.582 169.171L120.182 192.722C112.126 197.413 102.982 199.911 93.6602 199.969L93.3614 199.976ZM50.4037 75.4114C48.7915 76.3627 47.5008 77.7746 46.6975 79.4654C45.8942 81.1562 45.6152 83.0488 45.8963 84.8995C46.0809 86.1237 46.5039 87.2997 47.1414 88.361C48.4118 90.4671 50.4606 91.988 52.8442 92.5945C53.595 92.7729 54.3637 92.8649 55.1353 92.8685C56.7981 92.879 58.4328 92.4401 59.8669 91.5984L108.926 62.9101C110 62.2674 110.945 61.4316 111.715 60.4448C112.479 59.447 113.03 58.3027 113.334 57.0829C113.64 55.8703 113.699 54.6083 113.508 53.3723C113.323 52.1325 112.9 50.9401 112.263 49.861C111.627 48.8059 110.79 47.8867 109.798 47.1559C108.807 46.4252 107.681 45.8973 106.485 45.6026C105.726 45.4227 104.949 45.3307 104.169 45.3286C102.482 45.3387 100.827 45.7848 99.363 46.6236L98.4914 47.1465L50.4037 75.4114Z" fill="#151515"></path><path d="M683.451 199.976C674.228 199.971 665.166 197.568 657.153 193.003L617.109 170.167C609.493 165.801 603.069 159.626 598.407 152.187L598.357 152.113C598.058 151.615 597.784 151.216 597.56 150.843C597.311 150.369 597.037 149.946 596.838 149.523L596.788 149.423C592.581 141.713 590.356 133.079 590.313 124.296L590.089 78.2006C590.072 68.8786 592.495 59.7146 597.118 51.6192C601.74 43.5239 608.4 36.7791 616.437 32.0554L656.257 8.79593C664.316 4.11589 673.459 1.62614 682.778 1.57407H683.027C692.265 1.58197 701.342 3.98439 709.375 8.5469L743.068 27.772C747.453 30.2645 751.304 33.5976 754.399 37.5803C757.494 41.563 759.772 46.1171 761.105 50.9818C762.437 55.8465 762.797 60.9263 762.163 65.9302C761.53 70.9342 759.915 75.7639 757.412 80.143C754.053 85.992 749.23 90.8666 743.417 94.2879L675.855 133.734C674.781 134.377 673.836 135.213 673.066 136.2C672.302 137.197 671.751 138.342 671.447 139.562C671.141 140.774 671.082 142.036 671.273 143.272C671.458 144.512 671.88 145.704 672.518 146.783C673.149 147.84 673.981 148.762 674.968 149.497C675.955 150.232 677.078 150.766 678.271 151.067C680.688 151.655 683.239 151.289 685.393 150.046L725.661 126.463C728.472 124.789 731.587 123.689 734.825 123.225C735.981 123.067 737.146 122.984 738.312 122.976C740.413 122.968 742.506 123.236 744.538 123.773C749.297 125.001 753.582 127.622 756.843 131.3C760.104 134.978 762.192 139.545 762.841 144.418C763.709 150.96 761.945 157.579 757.935 162.821C755.951 165.41 753.471 167.577 750.639 169.196L710.246 192.754C702.19 197.445 693.046 199.944 683.725 200.001L683.451 199.976ZM640.493 75.4114C638.336 76.6945 636.778 78.7817 636.16 81.2139C635.853 82.418 635.794 83.6718 635.985 84.8995C636.17 86.1237 636.593 87.2997 637.231 88.361C638.501 90.4671 640.55 91.988 642.933 92.5945C643.684 92.7729 644.453 92.8649 645.225 92.8685C646.887 92.879 648.522 92.4401 649.956 91.5984L699.015 62.9102C700.089 62.2674 701.034 61.4316 701.804 60.4448C702.569 59.447 703.12 58.3027 703.423 57.0829C703.741 55.872 703.801 54.6076 703.597 53.3723C703.413 52.1325 702.99 50.9401 702.352 49.861C701.717 48.8059 700.879 47.8867 699.888 47.1559C698.896 46.4252 697.77 45.8973 696.574 45.6026C695.816 45.4227 695.038 45.3308 694.258 45.3286C692.572 45.3387 690.916 45.7848 689.452 46.6236L688.581 47.1465L640.493 75.4114Z" fill="#151515"></path><path d="M548.47 9.77194C534.125 9.77194 522.521 21.8997 522.521 36.2189V106.147H522.496V109.658C522.497 113.962 521.366 118.192 519.215 121.92C517.065 125.649 513.97 128.746 510.244 130.9L493.185 140.737C489.452 142.878 485.224 144.004 480.92 144.004C476.617 144.004 472.389 142.878 468.656 140.737L451.597 130.9C447.867 128.75 444.769 125.654 442.618 121.924C440.467 118.195 439.338 113.963 439.345 109.658L439.37 36.2438C439.37 21.8997 427.74 9.77194 413.421 9.77194C406.539 9.77194 399.938 12.5058 395.072 17.3722C390.206 22.2385 387.472 28.8388 387.472 35.7208V123.877C387.469 132.88 389.836 141.725 394.334 149.523C398.832 157.321 405.303 163.799 413.097 168.304L456.702 193.456C464.081 197.714 472.451 199.955 480.97 199.955C489.489 199.955 497.859 197.714 505.238 193.456L548.843 168.304C556.637 163.799 563.108 157.321 567.606 149.523C572.104 141.725 574.471 132.88 574.468 123.877V35.7208C574.449 28.8362 571.701 22.2399 566.829 17.3764C561.956 12.5129 555.354 9.7785 548.47 9.77194Z" fill="#151515"></path><path d="M962.757 136.777C962.323 133.499 961.239 130.341 959.569 127.488C957.908 124.632 955.697 122.133 953.064 120.137C950.43 118.141 947.428 116.686 944.229 115.858C942.172 115.321 940.054 115.053 937.929 115.061C936.746 115.069 935.565 115.152 934.392 115.31C931.11 115.77 927.953 116.879 925.104 118.573L884.337 142.43L884.362 142.479C880.637 144.594 876.425 145.702 872.141 145.693C867.857 145.684 863.649 144.56 859.932 142.43L842.874 132.593C839.143 130.443 836.046 127.347 833.895 123.617C831.744 119.888 830.615 115.656 830.622 111.351L830.646 35.6954C830.648 28.8106 827.915 22.2071 823.049 17.3365C818.183 12.4659 811.582 9.72684 804.698 9.72156C797.815 9.72156 791.215 12.4555 786.349 17.3218C781.483 22.1882 778.749 28.7884 778.749 35.6705V123.827C778.746 132.83 781.113 141.674 785.611 149.473C790.109 157.271 796.58 163.748 804.374 168.254L847.979 193.406C855.358 197.664 863.728 199.905 872.247 199.905C880.766 199.905 889.136 197.664 896.515 193.406L950.405 161.779C953.275 160.14 955.791 157.947 957.804 155.326C959.818 152.705 961.29 149.709 962.134 146.514C963.002 143.344 963.214 140.031 962.757 136.777Z" fill="#151515"></path><path d="M367.604 151.955C367.052 151.424 366.689 150.728 366.567 149.972C366.446 149.216 366.574 148.441 366.931 147.764C370.707 140.501 372.677 132.435 372.676 124.248V75.7374C372.661 66.7774 370.293 57.9785 365.809 50.2211C361.325 42.4638 354.882 36.02 347.126 31.5346L303.72 6.48214C296.377 2.23652 288.046 0.00109863 279.564 0.00109863C271.082 0.00109863 262.751 2.23652 255.408 6.48214L212.027 31.5346C204.268 36.0145 197.824 42.4577 193.343 50.2168C188.863 57.9759 186.503 66.7775 186.502 75.7374V124.241C186.495 133.202 188.852 142.007 193.333 149.768C197.814 157.528 204.262 163.97 212.027 168.444L255.433 193.471C262.776 197.717 271.107 199.952 279.589 199.952C288.071 199.952 296.402 197.717 303.745 193.471L320.517 183.801C321.098 183.467 321.761 183.305 322.431 183.333C323.1 183.362 323.747 183.581 324.297 183.963L335.504 191.758C347.375 199.744 363.41 196.681 371.319 184.922C378.392 174.408 376.566 160.49 367.604 151.955ZM250.403 128.93C246.69 126.79 243.607 123.708 241.464 119.996C239.322 116.284 238.196 112.073 238.2 107.788V88.164C238.201 83.8792 239.329 79.6703 241.471 75.9593C243.613 72.2483 246.693 69.1659 250.403 67.0213L267.386 57.2344C271.096 55.0925 275.305 53.9648 279.589 53.9648C283.873 53.9648 288.081 55.0925 291.791 57.2344L308.775 67.0213C312.488 69.1618 315.571 72.2433 317.714 75.9552C319.856 79.6671 320.982 83.8782 320.978 88.164V109.481C320.976 110.911 320.834 112.337 320.554 113.739C320.455 114.221 320.237 114.67 319.919 115.045C319.601 115.42 319.194 115.709 318.735 115.885C318.276 116.061 317.78 116.119 317.293 116.053C316.806 115.987 316.343 115.799 315.947 115.507C315.717 115.327 315.475 115.161 315.225 115.009L309.56 111.187L294.643 100.802C282.774 92.8183 266.736 95.8814 258.827 107.641C256.174 111.575 254.678 116.174 254.509 120.916C254.424 122.612 254.507 124.312 254.758 125.992C254.836 126.534 254.76 127.088 254.537 127.59C254.315 128.091 253.956 128.52 253.502 128.826C253.047 129.133 252.515 129.305 251.967 129.324C251.419 129.342 250.877 129.206 250.403 128.93Z" fill="#151515"></path></svg> 