<?xml version="1.0" encoding="UTF-8"?>
<svg id="Layer_2" data-name="Layer 2" xmlns="http://www.w3.org/2000/svg" viewBox="0 0 981.21 276.22">
  <defs>
    <style>
      .cls-1 {
        fill: none;
      }

      .cls-2 {
        opacity: .1;
      }

      .cls-3 {
        fill: #fff;
      }

      .cls-4 {
        fill: #e2ad5a;
      }

      .cls-5 {
        fill: #203e79;
      }

      .cls-6 {
        fill: #231f20;
      }

      .cls-7 {
        opacity: .3;
      }
    </style>
  </defs>
  <g id="Layer_1-2" data-name="Layer 1">
    <g>
      <g>
        <path class="cls-5" d="M274.97,0c18.13,0,30.22,11.48,30.22,28.71s-12.09,29.01-30.22,29.01-29.92-11.79-29.92-29.01S257.14,0,274.97,0Zm-24.48,75.25h49.26V231.2h-49.26V75.25Z"/>
        <path class="cls-5" d="M329.37,153.23c0-48.05,34.45-81.9,83.41-81.9,26.6,0,50.47,9.67,65.89,27.2l-26.9,30.53c-9.67-9.67-23.27-15.41-35.97-15.41-22.36,0-37.78,16.32-37.78,39.59s14.81,39.59,38.08,39.59c14.51,0,29.01-6.65,37.78-18.44l28.41,29.01c-16.92,21.16-41.1,31.73-69.81,31.73-48.66,0-83.11-33.85-83.11-81.9Z"/>
        <path class="cls-5" d="M513.73,174.08v-59.84h-24.78v-38.99h25.69l.91-37.48h47.45v37.48h38.69v38.99h-38.69v55.01c0,13.6,5.74,20.25,17.53,20.25,5.74,0,12.09-1.51,18.74-4.23l10.58,40.5c-12.09,5.44-25.99,8.16-38.69,8.16-38.08,0-57.42-20.85-57.42-59.84Z"/>
        <path class="cls-5" d="M786.95,231.2h-45.03l-.6-21.16c-13.9,16.02-30.22,23.57-51.38,23.57-35.97,0-58.03-25.39-58.03-61.05V75.25h49.26v84.32c0,19.64,8.46,30.53,25.99,30.53,19.34,0,30.53-13,30.53-33.55V75.25h49.26V231.2Z"/>
        <path class="cls-5" d="M815.96,153.53c0-48.36,33.85-82.21,83.11-82.21,55.31,0,89.76,43.52,80.69,99.73h-116.36c4.84,16.32,21.16,26.6,44.13,26.6,18.13,0,33.55-5.74,46.84-15.41l19.04,30.83c-17.53,13.9-42.01,22.06-69.51,22.06-53.49,0-87.95-32.94-87.95-81.6Zm119.98-13.9c-3.93-18.13-16.92-30.52-36.57-30.52s-32.94,11.79-36.57,30.52h73.14Z"/>
      </g>
      <g>
        <path class="cls-4" d="M111.38,246.07C49.97,246.07,0,200.57,0,144.66S49.97,43.29,111.38,43.29s111.38,45.46,111.38,101.37-49.97,101.37-111.38,101.37v.04Zm0-155.05c-32.49,0-58.93,24.09-58.93,53.68s26.44,53.68,58.93,53.68,58.93-24.09,58.93-53.68-26.44-53.68-58.93-53.68Z"/>
        <g class="cls-7">
          <path class="cls-3" d="M111.38,221.23c13.34-1.2,26.16-4.31,37.79-9.85,11.67-5.46,21.94-13.16,30.74-22.33-6.69,10.61-17.16,19.3-29.23,24.96-12.07,5.66-25.92,8.37-39.3,7.22Z"/>
        </g>
        <path class="cls-4" d="M111.38,68.13c-46.43,0-84.1,34.26-84.1,76.53s37.63,76.53,84.1,76.53,84.1-34.26,84.1-76.53-37.67-76.53-84.1-76.53Zm0,130.2c-32.49,0-58.93-24.09-58.93-53.68s26.44-53.68,58.93-53.68,58.93,24.09,58.93,53.68-26.44,53.68-58.93,53.68Z"/>
        <g class="cls-2">
          <path class="cls-6" d="M0,144.66c0,1.4,.04,2.75,.12,4.11,.2,1.48,.44,2.95,.72,4.43l4.46,22.37c10.27,29.19,34.72,52.68,65.98,63.69l-15.17-76.05c-2.35-5.78-3.7-12-3.7-18.5-2.11-10.65-.6-21.14,3.74-30.43-15.21-4.39-30.38-8.61-44.4-14.8C4.26,113.12,0,128.47,0,144.7v-.04Z"/>
        </g>
        <g class="cls-2">
          <path class="cls-1" d="M213.16,142.75c-6.97-41.39-40.7-73.18-82.71-82.95-6.93-1.6-14.06-2.59-21.34-2.95h-.32c-1.71-.08-3.46-.12-5.18-.12h-.4c-1.59,0-3.19,.04-4.82,.12h-.8c-1.39,.08-2.79,.16-4.14,.28-.52,.04-1,.04-1.51,.12-1.87,.16-3.78,.4-5.69,.64-.32,.04-.64,.12-1,.16v38.52c7.88-3.55,16.76-5.58,26.12-5.58,27,0,49.78,16.63,56.74,39.2,18,15.03,30.66,35.53,34.64,59.18,.64,3.87,1.04,7.74,1.19,11.56,9.04-17.55,12.66-37.65,9.2-58.18Z"/>
        </g>
        <path class="cls-4" d="M54.16,236.78l-1.75-92.08c0-29.59,26.44-53.68,58.93-53.68,8.16,0,15.97,1.52,23.06,4.27l.08-.12c41.09,14.91,70.24,51.52,70.24,94.19,0,3.91-.28,7.78-.76,11.6,11.87-16.11,18.76-35.45,18.76-56.27,0-41.91-28.07-77.92-67.97-93.36-6.57-2.55-13.46-4.51-20.63-5.86-.12,0-.2-.04-.32-.08-1.67-.32-3.38-.6-5.1-.84-.12,0-.28-.04-.4-.08-1.59-.24-3.19-.4-4.78-.56-.28,0-.56-.08-.8-.08-1.39-.12-2.79-.2-4.14-.28-.52,0-1-.08-1.51-.12-1.91-.08-3.82-.12-5.73-.12s-3.7,.04-5.54,.12c-.6,0-1.19,.08-1.83,.12-1.23,.08-2.43,.16-3.66,.24-.72,.08-1.43,.16-2.19,.24-1.08,.12-2.15,.24-3.23,.36-.76,.12-1.55,.24-2.31,.36-1,.16-1.99,.32-2.99,.48-.8,.16-1.55,.32-2.35,.48-.96,.2-1.91,.4-2.87,.6-.8,.2-1.59,.36-2.39,.56-.92,.24-1.83,.48-2.75,.72-.8,.2-1.59,.44-2.39,.68-.88,.28-1.75,.52-2.63,.8-.8,.24-1.59,.52-2.39,.8-.84,.28-1.67,.6-2.51,.92-.8,.28-1.59,.6-2.39,.92-.8,.32-1.59,.64-2.39,1-.8,.32-1.59,.68-2.39,1.04-.76,.32-1.47,.68-2.23,1.04-.8,.4-1.59,.76-2.39,1.16-.68,.36-1.35,.72-2.03,1.08-.84,.44-1.67,.88-2.47,1.32-.6,.32-1.15,.68-1.71,1-.88,.52-1.79,1.04-2.63,1.56-.28,.16-.56,.36-.84,.56-3.66,2.31-7.17,4.83-10.51,7.54-.16,.12-.32,.28-.52,.4-1,.8-1.95,1.64-2.87,2.47l-.84,.72c-.92,.8-1.79,1.64-2.67,2.47-.28,.28-.6,.56-.88,.84-.84,.84-1.67,1.67-2.51,2.55-.28,.32-.6,.6-.88,.92-.8,.88-1.59,1.75-2.39,2.67-.28,.32-.52,.6-.8,.92-.8,.92-1.55,1.83-2.27,2.79-.24,.32-.48,.6-.72,.92-.76,.96-1.47,1.95-2.19,2.95-.2,.28-.4,.56-.6,.84-.72,1.04-1.43,2.07-2.11,3.15-.16,.24-.32,.48-.48,.72-.72,1.12-1.39,2.23-2.07,3.39-.08,.16-.2,.36-.28,.52-.72,1.24-1.39,2.47-2.03,3.71,0,0,0,.08-.08,.12-4.94,9.65-8.28,20.14-9.68,31.11h.24c-.48,3.83-.76,7.7-.76,11.6l2.11,131.48"/>
        <g class="cls-7">
          <path class="cls-3" d="M111.38,68.13c-10.99,.64-21.78,2.87-31.7,6.9-9.92,4.03-18.99,9.61-26.6,16.59-7.65,6.94-13.82,15.23-18.2,24.21-4.38,9.01-6.85,18.86-7.57,28.87,0-2.51-.04-5.02,0-7.54,.24-2.51,.56-5.02,.84-7.54,.48-2.47,1.19-4.95,1.79-7.42,.76-2.43,1.75-4.83,2.59-7.22,3.98-9.49,10.31-18.18,18.24-25.44,7.96-7.18,17.52-12.96,27.95-16.59,2.67-.8,5.26-1.67,7.96-2.35,2.71-.56,5.42-1.2,8.16-1.64,2.79-.28,5.53-.56,8.28-.8h8.28l-.04-.04Z"/>
        </g>
        <path class="cls-4" d="M52.4,144.66c0-29.59,26.44-53.68,58.93-53.68,8.16,0,15.97,1.52,23.06,4.27l.08-.12c27.2,9.89,49.1,29.27,60.85,53.64,.08-1.36,.12-2.71,.12-4.11,0-42.27-37.63-76.53-84.1-76.53S27.28,102.39,27.28,144.66"/>
      </g>
    </g>
  </g>
</svg>